<?xml version="1.0" encoding="UTF-8" standalone="no"?>
<!DOCTYPE svg PUBLIC "-//W3C//DTD SVG 1.1//EN"
 "http://www.w3.org/Graphics/SVG/1.1/DTD/svg11.dtd">
<!-- Generated by graphviz version 14.1.5 (20260411.2331)
 -->
<!-- Title: G_workgroup Pages: 1 -->
<svg width="1384pt" height="317pt"
 viewBox="0.00 0.00 1384.00 317.00" xmlns="http://www.w3.org/2000/svg" xmlns:xlink="http://www.w3.org/1999/xlink">
<g id="graph0" class="graph" transform="scale(1 1) rotate(0) translate(4 312.5)">
<title>G_workgroup</title>
<polygon fill="white" stroke="none" points="-4,4 -4,-312.5 1380,-312.5 1380,4 -4,4"/>
<g id="clust1" class="cluster">
<title>cluster_main</title>
<polygon fill="none" stroke="black" points="8,-8 8,-300.5 1368,-300.5 1368,-8 8,-8"/>
<text xml:space="preserve" text-anchor="middle" x="688" y="-283.2" font-family="Times,serif" font-size="14.00">main</text>
</g>
<!-- main.RequiredToBeUniform_Error -->
<g id="node1" class="node">
<title>main.RequiredToBeUniform_Error</title>
<ellipse fill="none" stroke="black" cx="159" cy="-250" rx="142.97" ry="18"/>
<text xml:space="preserve" text-anchor="middle" x="159" y="-244.95" font-family="Times,serif" font-size="14.00">main.RequiredToBeUniform_Error</text>
</g>
<!-- main.RequiredToBeUniform_Warning -->
<g id="node2" class="node">
<title>main.RequiredToBeUniform_Warning</title>
<ellipse fill="none" stroke="black" cx="476" cy="-250" rx="155.76" ry="18"/>
<text xml:space="preserve" text-anchor="middle" x="476" y="-244.95" font-family="Times,serif" font-size="14.00">main.RequiredToBeUniform_Warning</text>
</g>
<!-- main.RequiredToBeUniform_Info -->
<g id="node3" class="node">
<title>main.RequiredToBeUniform_Info</title>
<ellipse fill="none" stroke="black" cx="789" cy="-250" rx="138.87" ry="18"/>
<text xml:space="preserve" text-anchor="middle" x="789" y="-244.95" font-family="Times,serif" font-size="14.00">main.RequiredToBeUniform_Info</text>
</g>
<!-- main.MayBeNonUniform -->
<g id="node4" class="node">
<title>main.MayBeNonUniform</title>
<ellipse fill="red" stroke="black" cx="1054" cy="-250" rx="108.16" ry="18"/>
<text xml:space="preserve" text-anchor="middle" x="1054" y="-244.95" font-family="Times,serif" font-size="14.00">main.MayBeNonUniform</text>
</g>
<!-- main.local_id_ident_expr -->
<g id="node7" class="node">
<title>main.local_id_ident_expr</title>
<ellipse fill="red" stroke="black" cx="1054" cy="-178" rx="106.11" ry="18"/>
<text xml:space="preserve" text-anchor="middle" x="1054" y="-172.95" font-family="Times,serif" font-size="14.00">main.local_id_ident_expr</text>
</g>
<!-- main.MayBeNonUniform&#45;&gt;main.local_id_ident_expr -->
<g id="edge1" class="edge">
<title>main.MayBeNonUniform&#45;&gt;main.local_id_ident_expr</title>
<path fill="none" stroke="red" d="M1054,-231.7C1054,-224.41 1054,-215.73 1054,-207.54"/>
<polygon fill="red" stroke="red" points="1057.5,-207.62 1054,-197.62 1050.5,-207.62 1057.5,-207.62"/>
</g>
<!-- main.CF_start -->
<g id="node5" class="node">
<title>main.CF_start</title>
<ellipse fill="none" stroke="black" cx="1242" cy="-178" rx="64.15" ry="18"/>
<text xml:space="preserve" text-anchor="middle" x="1242" y="-172.95" font-family="Times,serif" font-size="14.00">main.CF_start</text>
</g>
<!-- main.u_ident_expr -->
<g id="node8" class="node">
<title>main.u_ident_expr</title>
<ellipse fill="none" stroke="black" cx="1242" cy="-106" rx="81.04" ry="18"/>
<text xml:space="preserve" text-anchor="middle" x="1242" y="-100.95" font-family="Times,serif" font-size="14.00">main.u_ident_expr</text>
</g>
<!-- main.CF_start&#45;&gt;main.u_ident_expr -->
<g id="edge2" class="edge">
<title>main.CF_start&#45;&gt;main.u_ident_expr</title>
<path fill="none" stroke="black" d="M1242,-159.7C1242,-152.41 1242,-143.73 1242,-135.54"/>
<polygon fill="black" stroke="black" points="1245.5,-135.62 1242,-125.62 1238.5,-135.62 1245.5,-135.62"/>
</g>
<!-- main.n_ident_expr -->
<g id="node9" class="node">
<title>main.n_ident_expr</title>
<ellipse fill="red" stroke="black" cx="1062" cy="-106" rx="81.04" ry="18"/>
<text xml:space="preserve" text-anchor="middle" x="1062" y="-100.95" font-family="Times,serif" font-size="14.00">main.n_ident_expr</text>
</g>
<!-- main.CF_start&#45;&gt;main.n_ident_expr -->
<g id="edge3" class="edge">
<title>main.CF_start&#45;&gt;main.n_ident_expr</title>
<path fill="none" stroke="black" d="M1205.57,-162.83C1178.49,-152.3 1141.24,-137.81 1111.46,-126.24"/>
<polygon fill="black" stroke="black" points="1112.86,-123.02 1102.27,-122.66 1110.33,-129.55 1112.86,-123.02"/>
</g>
<!-- main.param_local_id -->
<g id="node6" class="node">
<title>main.param_local_id</title>
<ellipse fill="none" stroke="black" cx="1270" cy="-250" rx="90.25" ry="18"/>
<text xml:space="preserve" text-anchor="middle" x="1270" y="-244.95" font-family="Times,serif" font-size="14.00">main.param_local_id</text>
</g>
<!-- main.local_id_ident_expr&#45;&gt;main.n_ident_expr -->
<g id="edge4" class="edge">
<title>main.local_id_ident_expr&#45;&gt;main.n_ident_expr</title>
<path fill="none" stroke="red" d="M1055.98,-159.7C1056.81,-152.41 1057.8,-143.73 1058.74,-135.54"/>
<polygon fill="red" stroke="red" points="1062.22,-135.94 1059.87,-125.61 1055.26,-135.15 1062.22,-135.94"/>
</g>
<!-- main.binary_expr_result -->
<g id="node10" class="node">
<title>main.binary_expr_result</title>
<ellipse fill="red" stroke="black" cx="1152" cy="-34" rx="102.02" ry="18"/>
<text xml:space="preserve" text-anchor="middle" x="1152" y="-28.95" font-family="Times,serif" font-size="14.00">main.binary_expr_result</text>
</g>
<!-- main.u_ident_expr&#45;&gt;main.binary_expr_result -->
<g id="edge5" class="edge">
<title>main.u_ident_expr&#45;&gt;main.binary_expr_result</title>
<path fill="none" stroke="black" d="M1220.67,-88.41C1209.29,-79.56 1195.09,-68.52 1182.56,-58.77"/>
<polygon fill="black" stroke="black" points="1185.04,-56.26 1175,-52.89 1180.74,-61.79 1185.04,-56.26"/>
</g>
<!-- main.n_ident_expr&#45;&gt;main.binary_expr_result -->
<g id="edge6" class="edge">
<title>main.n_ident_expr&#45;&gt;main.binary_expr_result</title>
<path fill="none" stroke="red" d="M1083.33,-88.41C1094.71,-79.56 1108.91,-68.52 1121.44,-58.77"/>
<polygon fill="red" stroke="red" points="1123.26,-61.79 1129,-52.89 1118.96,-56.26 1123.26,-61.79"/>
</g>
</g>
</svg>
